<svg width="46" height="37" viewBox="0 0 46 37" fill="none" xmlns="http://www.w3.org/2000/svg">
<path d="M3.61035 0.913086C4.52417 0.913086 5.35169 1.30853 5.95062 1.94787C6.54963 2.58713 6.92012 3.47033 6.92012 4.44574C6.92012 5.4211 6.54959 6.30426 5.95062 6.94361C5.35162 7.58291 4.52418 7.97839 3.61035 7.97839C2.69652 7.97839 1.86904 7.58295 1.27003 6.94361C0.6711 6.30434 0.300537 5.4211 0.300537 4.44574C0.300537 3.47034 0.671031 2.58713 1.27003 1.94787C1.86904 1.30853 2.69648 0.913086 3.61035 0.913086Z" fill="#C69C07"/>
<path d="M23.4243 0.913086C24.3382 0.913086 25.1656 1.30853 25.7646 1.94787C26.3636 2.58713 26.7341 3.4703 26.7341 4.44574C26.7341 5.4211 26.3636 6.30434 25.7646 6.94361C25.1656 7.58295 24.3381 7.97839 23.4243 7.97839C22.5104 7.97839 21.6829 7.58295 21.084 6.94361C20.485 6.30434 20.1145 5.4211 20.1145 4.44574C20.1145 3.4703 20.485 2.58713 21.084 1.94787C21.6829 1.30853 22.5104 0.913086 23.4243 0.913086Z" fill="#C69C07"/>
<path d="M42.6958 0.913086C43.6096 0.913086 44.4371 1.30853 45.0361 1.94787C45.6351 2.58713 46.0056 3.47033 46.0056 4.44574C46.0056 5.4211 45.635 6.30434 45.0361 6.94361C44.4371 7.58295 43.6096 7.97839 42.6958 7.97839C41.7819 7.97839 40.9545 7.58291 40.3555 6.94361C39.7565 6.30427 39.386 5.4211 39.386 4.44574C39.386 3.47034 39.7565 2.58713 40.3555 1.94787C40.9544 1.30853 41.7819 0.913086 42.6958 0.913086Z" fill="#C69C07"/>
<path fill-rule="evenodd" clip-rule="evenodd" d="M30.9436 17.8221L25.5122 7.18665L25.0715 6.32355L23.4243 7.2811L21.7772 6.32359L21.3364 7.18668L15.9051 17.8221L6.11537 6.75434L5.41919 5.96729L4.48353 6.9069H3.15015V7.94439V27.0928C3.15015 29.7779 5.54567 32.1183 9.41866 33.7314C13.0232 35.2327 17.9799 36.1613 23.4346 36.1613C28.8892 36.1613 33.846 35.2327 37.4505 33.7314C41.3235 32.1182 43.719 29.7779 43.719 27.0928H43.6985V7.81313V6.96125H42.0872L41.2733 6.14388L40.4661 7.05641L30.9436 17.822L30.9436 17.8221ZM23.4345 23.0568C24.6088 23.0568 25.6721 23.565 26.4417 24.3864C27.2113 25.2079 27.6874 26.3427 27.6874 27.596C27.6874 28.8494 27.2113 29.9842 26.4417 30.8057C25.672 31.6271 24.6088 32.1353 23.4345 32.1353C22.2603 32.1353 21.1971 31.6271 20.4274 30.8057C19.6578 29.9842 19.1817 28.8494 19.1817 27.596C19.1817 26.3427 19.6578 25.2079 20.4274 24.3864C21.197 23.565 22.2603 23.0568 23.4345 23.0568Z" fill="#C69C07"/>
</svg>
