<svg width="147" height="142" viewBox="0 0 147 142" fill="none" xmlns="http://www.w3.org/2000/svg">
<path d="M28.7187 62.7205C27.4671 62.3445 26.6829 62.1788 25.8196 62.3346C24.887 62.5028 23.7368 63.0396 21.7677 64.0637C20.4889 64.7291 19.0814 65.1546 17.6219 65.2981C16.2094 65.4366 14.7549 65.3179 13.3177 64.8998C10.2875 64.0217 7.90287 61.9957 6.49288 59.4355C5.08289 56.8728 4.65248 53.7757 5.53063 50.7455C6.40878 47.7153 8.43471 45.3307 10.9949 43.9207C13.5577 42.5107 16.6547 42.0803 19.6849 42.9584C21.1196 43.374 22.4158 44.0542 23.5339 44.9274C24.6891 45.8303 25.6514 46.9435 26.3762 48.1902C27.4844 50.0999 28.1696 51.1685 28.8573 51.8067C29.4955 52.3979 30.2326 52.6799 31.4695 53.0287L32.4713 53.3107C34.2548 53.8128 36.0136 54.3076 37.7971 54.8592C39.2417 55.3045 40.0951 55.5271 40.9906 55.3935C41.9429 55.2525 43.1056 54.7157 45.1686 53.6422C46.4475 52.9767 47.855 52.5513 49.3145 52.4078C50.7269 52.2693 52.1814 52.388 53.6186 52.8061C56.6489 53.6842 59.0335 55.7101 60.4435 58.2704C61.8535 60.8331 62.2839 63.9301 61.4057 66.9604C60.5276 69.9906 58.5016 72.3752 55.9414 73.7852C53.3787 75.1952 50.2817 75.6256 47.2514 74.7475C45.8167 74.3319 44.5205 73.6516 43.4024 72.7784C42.2472 71.8755 41.2849 70.7624 40.5602 69.5157C39.4915 67.6752 38.8162 66.6141 38.1483 65.966C37.5398 65.3747 36.8645 65.0853 35.7687 64.7637C34.7619 64.4669 33.7551 64.18 32.7459 63.8905C31.4027 63.5071 30.0595 63.1212 28.7163 62.718L28.7187 62.7205ZM107.361 15.1965C106.233 14.442 105.568 13.9003 105.039 12.9529C104.546 12.0747 104.242 10.9344 103.822 8.97029C103.619 8.0204 103.238 7.1101 102.686 6.29131C102.157 5.50221 101.472 4.79969 100.638 4.23323C98.8842 3.03845 96.8137 2.6674 94.8818 3.0335C92.9697 3.39713 91.1936 4.48307 90.0013 6.20721C89.9815 6.23937 89.9592 6.27152 89.9369 6.30121C88.7694 8.04514 88.4082 10.0958 88.7694 12.0104C89.133 13.9226 90.2189 15.6987 91.9431 16.891C91.9752 16.9107 92.0074 16.933 92.0371 16.9553C92.8583 17.5044 93.7464 17.8755 94.6567 18.0783C95.6214 18.291 96.6084 18.3133 97.5632 18.155C99.5397 17.8285 100.71 17.6924 101.692 17.8235C102.755 17.9645 103.503 18.3776 104.606 19.142L105.316 19.6342C106.56 20.4976 107.787 21.3485 109.068 22.1895C110.332 23.0182 111.057 23.5525 111.628 24.4999C112.17 25.3954 112.484 26.5531 112.927 28.6211C113.13 29.5709 113.511 30.4813 114.063 31.3C114.592 32.0891 115.277 32.7917 116.111 33.3581C117.865 34.5529 119.935 34.924 121.867 34.5579C123.779 34.1942 125.555 33.1083 126.748 31.3841C126.767 31.352 126.79 31.3198 126.812 31.2901C127.979 29.5462 128.341 27.4955 127.979 25.5809C127.618 23.6688 126.53 21.8927 124.806 20.7004C124.774 20.6806 124.741 20.6583 124.712 20.6361C123.89 20.0869 123.002 19.7159 122.092 19.513C121.127 19.3003 120.14 19.278 119.186 19.4364C117.288 19.7505 116.136 19.8866 115.181 19.7827C114.134 19.6689 113.397 19.3003 112.371 18.6052C111.379 17.9348 110.8 17.5366 110.218 17.1383C109.274 16.4902 108.331 15.8421 107.366 15.1965H107.361ZM106.716 12.0129C107.05 12.609 107.554 13.0073 108.433 13.5936C109.395 14.2367 110.35 14.8922 111.304 15.5478C112.15 16.1291 112.996 16.7104 113.442 17.0122C114.201 17.5242 114.723 17.7938 115.388 17.8681C116.145 17.9497 117.162 17.826 118.871 17.5415C120.071 17.3436 121.308 17.3708 122.51 17.6355C123.67 17.8903 124.801 18.3677 125.84 19.0777C128.031 20.5718 129.412 22.8129 129.869 25.2297C130.327 27.644 129.864 30.2314 128.37 32.4206C126.876 34.6123 124.635 35.9926 122.218 36.4502C119.804 36.9078 117.216 36.4453 115.027 34.9512C113.986 34.2412 113.125 33.3606 112.462 32.3761C111.774 31.352 111.297 30.2116 111.042 29.0267C110.646 27.1715 110.379 26.1622 109.981 25.4993C109.612 24.8883 109.034 24.4703 108.012 23.7999C106.726 22.9564 105.481 22.0931 104.22 21.2174L103.51 20.7251C102.664 20.1413 102.117 19.8272 101.435 19.7381C100.673 19.6367 99.6461 19.7604 97.8749 20.0548C96.6752 20.2527 95.4384 20.2255 94.2362 19.9608C93.076 19.706 91.9456 19.2286 90.9066 18.5186C88.715 17.0245 87.3346 14.7834 86.877 12.3666C86.4194 9.95233 86.882 7.36488 88.3736 5.17569C89.8677 2.98403 92.1088 1.60372 94.5256 1.14609C96.9399 0.688467 99.5273 1.15104 101.717 2.64513C102.758 3.35507 103.619 4.2357 104.282 5.22022C104.969 6.24431 105.447 7.38467 105.702 8.56956C106.083 10.3456 106.342 11.35 106.713 12.0129H106.716ZM135.712 85.5722C136.081 84.2612 136.392 83.4622 137.122 82.6706C137.802 81.9334 138.792 81.2928 140.538 80.281C140.555 80.2711 140.575 80.2612 140.595 80.2514C141.409 79.7715 142.136 79.1382 142.735 78.3763C143.324 77.6268 143.779 76.7561 144.061 75.7913C144.654 73.7555 144.367 71.6702 143.422 69.9461C142.478 68.2219 140.877 66.8589 138.841 66.2653C136.805 65.6716 134.72 65.9585 132.996 66.9035C131.272 67.8484 129.909 69.4489 129.315 71.4847C129.033 72.4544 128.949 73.4339 129.041 74.3813C129.135 75.3584 129.422 76.3059 129.869 77.1692C130.785 78.9378 131.274 80.0065 131.455 80.9959C131.65 82.0547 131.49 82.8932 131.106 84.1721L130.859 84.9983C130.421 86.4504 129.99 87.8851 129.587 89.3569C129.189 90.8139 128.905 91.6673 128.182 92.5034C127.5 93.2925 126.495 93.948 124.662 95.0117L124.66 95.0142L124.662 95.0166C123.824 95.5015 123.077 96.1471 122.468 96.9214C121.879 97.6709 121.424 98.5416 121.142 99.5063C120.549 101.542 120.835 103.627 121.78 105.352C122.725 107.076 124.326 108.439 126.362 109.032C128.397 109.626 130.483 109.339 132.207 108.394C133.931 107.449 135.294 105.849 135.888 103.813C136.17 102.843 136.254 101.864 136.162 100.916C136.068 99.9392 135.781 98.9918 135.334 98.1285C134.453 96.4291 133.966 95.3753 133.768 94.423C133.553 93.3914 133.676 92.5776 134.02 91.3853C134.26 90.5492 134.507 89.7181 134.752 88.8869C135.079 87.7861 135.405 86.6829 135.717 85.5722H135.712ZM138.539 83.9767C138.069 84.4863 137.844 85.0874 137.56 86.0991C137.246 87.2172 136.917 88.3229 136.59 89.4286C136.345 90.2573 136.1 91.0885 135.86 91.9196C135.608 92.7978 135.512 93.3766 135.65 94.0346C135.804 94.7693 136.239 95.6994 137.038 97.2429C137.595 98.3165 137.951 99.5014 138.069 100.733C138.186 101.916 138.082 103.138 137.728 104.347C136.986 106.895 135.282 108.899 133.125 110.079C130.97 111.259 128.368 111.617 125.822 110.875C123.274 110.133 121.271 108.429 120.091 106.272C118.911 104.117 118.552 101.515 119.294 98.9696C119.648 97.7575 120.22 96.6691 120.949 95.7365C121.711 94.7643 122.649 93.9579 123.7 93.3494L123.702 93.3519C125.34 92.402 126.218 91.838 126.725 91.2517C127.193 90.71 127.41 90.0322 127.735 88.8523C128.14 87.3631 128.578 85.916 129.018 84.4492L129.266 83.623C129.563 82.6335 129.691 82.0151 129.567 81.3422C129.431 80.5977 128.994 79.6601 128.162 78.0547C127.606 76.9787 127.25 75.7963 127.131 74.5644C127.015 73.382 127.119 72.16 127.472 70.9504C128.214 68.4025 129.919 66.3988 132.076 65.2189C134.23 64.039 136.833 63.6803 139.378 64.4224C141.926 65.1645 143.93 66.8688 145.11 69.0259C146.289 71.1804 146.648 73.7827 145.906 76.3281C145.552 77.5402 144.981 78.6286 144.251 79.5612C143.507 80.5086 142.594 81.3027 141.567 81.9087C141.545 81.9235 141.525 81.9359 141.5 81.9508C139.935 82.8586 139.061 83.4152 138.542 83.9792L138.539 83.9767ZM77.5389 134.286C78.8995 134.232 79.7578 134.281 80.7324 134.729C81.6452 135.149 82.563 135.894 84.0595 137.24C84.7818 137.888 85.6254 138.4 86.5505 138.739C87.446 139.065 88.4156 139.231 89.4224 139.201C91.5423 139.137 93.4347 138.219 94.7804 136.789C96.126 135.36 96.9275 133.413 96.8632 131.29C96.7989 129.171 95.8812 127.278 94.4514 125.932C93.0216 124.587 91.0748 123.785 88.9524 123.85C87.9432 123.879 86.9883 124.102 86.1201 124.483C85.2197 124.876 84.4083 125.44 83.7256 126.133C82.3255 127.553 81.4572 128.349 80.5741 128.827C79.6267 129.341 78.7782 129.445 77.44 129.477L76.5767 129.497C75.0579 129.529 73.5588 129.564 72.04 129.636C70.5335 129.707 69.6331 129.7 68.6164 129.272C67.6517 128.866 66.7191 128.114 65.1409 126.697C64.4186 126.049 63.5751 125.537 62.65 125.198C61.7545 124.871 60.7848 124.706 59.778 124.735C57.6581 124.8 55.7658 125.717 54.4201 127.147C53.0744 128.577 52.273 130.524 52.3373 132.646C52.4016 134.766 53.3193 136.658 54.7491 138.004C56.1789 139.35 58.1256 140.151 60.248 140.087C61.2573 140.057 62.2121 139.834 63.0804 139.454C63.9808 139.06 64.7922 138.496 65.4749 137.804C66.8206 136.441 67.6715 135.654 68.5175 135.169C69.4352 134.645 70.2466 134.509 71.4834 134.467C72.0326 134.447 73.0591 134.42 74.0882 134.392C75.2384 134.363 76.3887 134.331 77.5365 134.286H77.5389ZM79.9334 136.483C79.3027 136.193 78.6595 136.164 77.6107 136.206C76.4431 136.253 75.2904 136.282 74.1401 136.312C73.4376 136.332 72.7351 136.349 71.5502 136.389C70.6325 136.421 70.0512 136.507 69.4723 136.839C68.8218 137.21 68.0747 137.91 66.8527 139.149C66.0018 140.013 64.9851 140.715 63.8522 141.21C62.786 141.675 61.6185 141.952 60.3915 142.001C60.3371 142.009 60.2802 142.009 60.2233 142.006C57.6062 142.063 55.2067 141.066 53.4356 139.399C51.6644 137.732 50.5241 135.399 50.4202 132.782C50.4128 132.728 50.4128 132.671 50.4152 132.614C50.3583 129.997 51.3552 127.597 53.0225 125.826C54.707 124.038 57.0743 122.89 59.7236 122.808H59.7261C60.9877 122.771 62.1973 122.976 63.3104 123.385C64.4706 123.808 65.5268 124.451 66.4297 125.262C67.8397 126.529 68.6486 127.189 69.361 127.491C70.0215 127.77 70.7339 127.768 71.9559 127.709C73.5044 127.634 75.0133 127.602 76.5396 127.568L77.4029 127.548C78.4319 127.523 79.0602 127.454 79.6613 127.13C80.3268 126.769 81.0837 126.064 82.3502 124.78C83.2012 123.916 84.2178 123.214 85.3508 122.719C86.4169 122.254 87.5845 121.977 88.8114 121.928C88.8658 121.92 88.9227 121.92 88.9796 121.923C91.5968 121.866 93.9962 122.863 95.7674 124.53C97.5385 126.197 98.6789 128.53 98.7828 131.147C98.7902 131.201 98.7902 131.258 98.7877 131.315C98.8446 133.932 97.8477 136.332 96.1805 138.103C94.4959 139.894 92.1286 141.039 89.4768 141.121C88.2153 141.158 87.0057 140.953 85.8925 140.544C84.7324 140.121 83.6761 139.478 82.7732 138.667C81.4251 137.455 80.6261 136.797 79.931 136.48L79.9334 136.483ZM13.2336 94.0074C13.7061 95.2863 13.9238 96.1174 13.7976 97.1885C13.6813 98.1854 13.2559 99.2862 12.4396 101.124C12.0463 102.01 11.8187 102.972 11.784 103.961C11.7494 104.909 11.8904 105.881 12.2318 106.831C12.9491 108.827 14.4037 110.346 16.1797 111.182C17.9435 112.016 20.0238 112.179 22.0102 111.479C22.0374 111.467 22.0671 111.457 22.0943 111.449C24.0707 110.727 25.5722 109.28 26.4034 107.516C27.237 105.752 27.4003 103.672 26.7002 101.686C26.6879 101.656 26.678 101.629 26.6681 101.599C26.3267 100.666 25.827 99.8403 25.2086 99.1452C24.5531 98.4056 23.7665 97.8069 22.8982 97.374C21.1122 96.4786 20.0881 95.9022 19.3658 95.2145C18.5841 94.47 18.2205 93.6982 17.7777 92.4341L17.4933 91.6203C16.9862 90.1683 16.484 88.7335 15.9596 87.3483C15.4228 85.9334 15.1507 85.0725 15.2447 83.9742C15.3338 82.9378 15.7592 81.8197 16.6201 79.8803C17.0134 78.9947 17.2409 78.0325 17.2756 77.043C17.3102 76.1104 17.1717 75.1531 16.8427 74.2181C16.8303 74.1884 16.8204 74.1587 16.8105 74.129C16.0882 72.1526 14.6411 70.6511 12.8774 69.8199C11.1137 68.9863 9.03333 68.823 7.04698 69.5231C7.01977 69.5354 6.99009 69.5453 6.96288 69.5528C4.98642 70.2751 3.48491 71.7222 2.65376 73.4859C1.82013 75.2496 1.65687 77.33 2.35692 79.3163C2.36929 79.346 2.37918 79.3732 2.38908 79.4029C2.73044 80.3355 3.23012 81.1617 3.84854 81.8568C4.50406 82.5964 5.29068 83.195 6.15894 83.6279C7.86824 84.4838 8.87996 85.0503 9.5998 85.7058C10.3815 86.4157 10.7624 87.1479 11.1829 88.3105C11.5194 89.2357 11.789 90.0001 12.0611 90.7619C12.4371 91.8232 12.8131 92.8844 13.2287 94.0049L13.2336 94.0074ZM11.8879 96.9634C11.9671 96.2807 11.7964 95.6623 11.4328 94.6753C11.0444 93.624 10.6511 92.5158 10.2578 91.4051C9.94859 90.5368 9.64185 89.6686 9.38459 88.9611C9.07291 88.0978 8.80823 87.5734 8.3135 87.1257C7.7594 86.621 6.85898 86.1263 5.30305 85.3446C4.21711 84.8004 3.23507 84.0534 2.41629 83.1307C1.62471 82.2402 0.988982 81.1889 0.565986 80.004C-0.32948 77.5081 -0.12664 74.886 0.922193 72.6646C1.97103 70.4408 3.86833 68.6177 6.36178 67.7223H6.36425C8.8577 66.8268 11.4823 67.0296 13.7036 68.0785C15.9274 69.1273 17.7505 71.0246 18.646 73.518V73.5205C19.0715 74.7079 19.2496 75.9224 19.205 77.1123C19.1605 78.3417 18.876 79.5439 18.3838 80.6546C17.6145 82.3861 17.2385 83.3583 17.1717 84.1375C17.1098 84.8524 17.3325 85.5277 17.7629 86.668C18.3244 88.1547 18.8167 89.5597 19.3139 90.9846L19.5983 91.7984C19.9397 92.7706 20.1994 93.3469 20.6942 93.8169C21.2483 94.3438 22.1536 94.846 23.764 95.6524C24.8499 96.1966 25.832 96.9436 26.6508 97.8663C27.4423 98.7568 28.0781 99.8081 28.5011 100.993C29.3965 103.489 29.1937 106.111 28.1448 108.332C27.096 110.556 25.1987 112.379 22.7053 113.275C20.2093 114.17 17.5873 113.967 15.3659 112.919C13.1421 111.87 11.319 109.972 10.4235 107.476C9.99806 106.289 9.81996 105.075 9.86448 103.885C9.90901 102.655 10.1935 101.453 10.6857 100.342C11.4229 98.6826 11.8014 97.7179 11.8904 96.9585L11.8879 96.9634ZM31.6723 20.406C30.6012 21.2495 29.8789 21.7171 28.8202 21.9273C27.8431 22.1228 26.6631 22.0584 24.6545 21.8506C23.6923 21.7517 22.7077 21.8333 21.7579 22.103C20.8401 22.3652 19.9595 22.8005 19.163 23.414C17.4858 24.7127 16.4939 26.5679 16.2441 28.5196C15.9967 30.4689 16.4914 32.5121 17.7876 34.1893C19.0863 35.8664 20.9415 36.8584 22.8933 37.1082C24.8425 37.3556 26.8858 36.8608 28.5629 35.5646C29.3545 34.9512 29.9976 34.2066 30.4825 33.3829C30.9846 32.5295 31.3111 31.5944 31.4571 30.6371C31.7564 28.6656 31.9889 27.5129 32.4193 26.6149C32.8844 25.6428 33.5078 25.059 34.5739 24.2452L35.2616 23.7232C36.4514 22.8179 37.6239 21.9249 38.8484 20.9428C40.0259 19.9979 40.7605 19.4735 41.839 19.2236C42.8508 18.9886 44.048 19.048 46.1605 19.2657C47.1228 19.3646 48.1073 19.283 49.0572 19.0134C49.9749 18.7512 50.8555 18.3158 51.6521 17.7023C53.3292 16.4036 54.3211 14.5484 54.571 12.5967C54.8184 10.6474 54.3236 8.60419 53.0274 6.92704C51.7288 5.2499 49.8735 4.25796 47.9218 4.00812C45.9725 3.76076 43.9293 4.25549 42.2521 5.55169C41.4606 6.16516 40.8174 6.90973 40.3326 7.73346C39.8304 8.58934 39.5039 9.52192 39.358 10.4792C39.071 12.374 38.8459 13.5095 38.4501 14.3901C38.0148 15.3573 37.4359 15.946 36.4613 16.7054C35.8652 17.1705 35.1329 17.732 34.3983 18.296C33.4706 19.0084 32.543 19.7208 31.6723 20.406ZM28.4442 20.0375C29.1219 19.9014 29.6538 19.5477 30.48 18.8996C31.4274 18.1525 32.3278 17.4624 33.2258 16.7722C33.8664 16.28 34.5046 15.7902 35.2789 15.1866C36.0037 14.6226 36.4217 14.2095 36.6938 13.6059C37.0055 12.9158 37.1985 11.9065 37.4607 10.1873C37.6437 8.98513 38.0494 7.81756 38.6728 6.75883C39.2714 5.73969 40.0753 4.81206 41.0772 4.03533C43.1748 2.41261 45.7301 1.79419 48.1691 2.1034C50.5735 2.41014 52.8642 3.6247 54.4844 5.6729C54.5289 5.7199 54.5685 5.77184 54.6056 5.82874C56.1838 7.91156 56.7849 10.4347 56.4782 12.844C56.1714 15.2484 54.9569 17.5391 52.9087 19.1593C52.8617 19.2038 52.8097 19.2434 52.7553 19.278C51.7757 20.0201 50.7047 20.5446 49.594 20.8612C48.4066 21.2001 47.1747 21.3015 45.9651 21.1753C44.0827 20.9799 43.0412 20.9206 42.2818 21.0987C41.5867 21.2594 41.0128 21.68 40.058 22.4443C38.888 23.3843 37.666 24.3119 36.4316 25.2519L35.7439 25.7739C34.9252 26.3972 34.4576 26.8227 34.1633 27.4387C33.8343 28.1288 33.6339 29.1455 33.3643 30.929C33.1812 32.1312 32.7755 33.2988 32.1522 34.3575C31.5684 35.3494 30.7892 36.2573 29.8245 37.0191C29.7775 37.0637 29.7255 37.1033 29.6686 37.1379C27.5858 38.7161 25.0627 39.3172 22.6533 39.0104C20.2489 38.7037 17.9583 37.4891 16.3381 35.441C16.2935 35.394 16.254 35.342 16.2168 35.2851C14.6387 33.2023 14.0376 30.6792 14.3443 28.2698C14.656 25.8332 15.8953 23.5154 17.9929 21.8927C18.9923 21.1184 20.0931 20.5742 21.231 20.2502C22.4183 19.9113 23.6502 19.8099 24.8598 19.936C26.6582 20.1216 27.6897 20.1834 28.4466 20.0325L28.4442 20.0375ZM66.6944 25.7516C66.6647 24.4455 66.5806 23.649 66.17 22.8846C65.7223 22.0485 64.8565 21.1209 63.2733 19.565C62.2468 18.5557 61.4082 17.3461 60.817 15.998C60.248 14.6993 59.9141 13.2794 59.8671 11.7828C59.7682 8.62892 60.9555 5.73474 62.9542 3.60491C64.9554 1.47262 67.768 0.104682 70.9219 0.00573577C74.0758 -0.0932107 76.97 1.09415 79.0998 3.09287C81.2321 5.09406 82.6001 7.90661 82.699 11.0605C82.746 12.5596 82.5036 13.9992 82.0187 15.3276C81.5166 16.703 80.7572 17.9596 79.7924 19.0381C78.328 20.6757 77.5241 21.6528 77.1234 22.5185C76.7548 23.3151 76.7152 24.1017 76.7647 25.3781C76.8092 26.5358 76.7672 25.4276 76.8067 26.4195C76.881 28.2525 76.9527 30.0607 76.9799 31.9655C77.0022 33.4719 77.0541 34.3501 77.4598 35.1639C77.8902 36.0297 78.7585 36.9697 80.4133 38.5949C81.4399 39.6041 82.2785 40.8137 82.8697 42.1619C83.4386 43.4606 83.7726 44.8804 83.8196 46.377C83.9185 49.5309 82.7336 52.4251 80.7324 54.5549C78.7313 56.6872 75.9187 58.0552 72.7648 58.1541C69.6109 58.2531 66.7167 57.0682 64.5868 55.067C62.4545 53.0658 61.0866 50.2532 60.9877 47.0993C60.9407 45.6003 61.1831 44.1606 61.6679 42.8323C62.1701 41.4569 62.9295 40.2003 63.8942 39.1218C65.3067 37.5436 66.1057 36.5764 66.5213 35.7304C66.8973 34.9635 66.964 34.2313 66.9319 33.091C66.9071 32.2054 66.8676 31.0774 66.828 29.9519C66.7785 28.5518 66.729 27.1492 66.6969 25.7516H66.6944ZM67.862 21.9719C68.4631 23.0924 68.5843 24.1017 68.6189 25.7145C68.6511 27.1196 68.7006 28.5048 68.7476 29.8925C68.7822 30.8597 68.8168 31.8269 68.849 33.039C68.891 34.5059 68.7921 35.4731 68.2454 36.5788C67.7408 37.6054 66.8601 38.6839 65.3215 40.4006C64.5225 41.2936 63.8893 42.34 63.4712 43.4902C63.068 44.5935 62.8677 45.7908 62.9072 47.0375C62.9913 49.6571 64.1292 51.9972 65.9004 53.6595C67.674 55.3243 70.0809 56.3112 72.7005 56.2296C75.3201 56.1455 77.6602 55.0076 79.3225 53.2365C80.9872 51.4629 81.9742 49.056 81.8901 46.4364C81.8505 45.1847 81.5735 44.0023 81.1035 42.9287C80.6162 41.8156 79.9186 40.8113 79.0602 39.9678C77.2495 38.1867 76.2823 37.128 75.7307 36.0198C75.1543 34.8596 75.0801 33.7885 75.0554 31.9877C75.0307 30.177 74.9564 28.349 74.8822 26.4962C74.8773 26.4022 74.8798 26.4467 74.8822 26.4962L74.8427 25.4474C74.7808 23.8568 74.8427 22.85 75.3695 21.7121C75.8643 20.6435 76.7548 19.5477 78.3577 17.7592C79.1567 16.8662 79.79 15.8199 80.208 14.6696C80.6112 13.5664 80.8116 12.3691 80.772 11.1224C80.6879 8.50277 79.55 6.16268 77.7789 4.50038C76.0176 2.84797 73.633 1.86346 71.0357 1.93025C70.9986 1.93272 70.9615 1.93519 70.9219 1.93272C68.3246 2.02919 66.0067 3.1646 64.3543 4.92338C62.7019 6.68462 61.7174 9.06923 61.7842 11.6666C61.7867 11.7062 61.7891 11.7433 61.7867 11.7828C61.8337 13.0123 62.1082 14.1749 62.5708 15.2311C63.0581 16.3443 63.7557 17.3486 64.6141 18.1921C66.3333 19.8841 67.2906 20.923 67.8546 21.9743L67.862 21.9719ZM74.8847 26.4962C74.8872 26.5481 74.8896 26.6001 74.8847 26.4962V26.4962ZM113.588 50.4437C114.824 50.0108 115.554 49.6843 116.155 49.056C116.811 48.3708 117.427 47.2601 118.416 45.2787C119.062 43.985 119.95 42.8125 121.046 41.8378C122.104 40.8979 123.354 40.1384 124.761 39.6313C127.727 38.5627 130.846 38.7977 133.493 40.0444C136.14 41.2887 138.309 43.5422 139.381 46.5081C140.449 49.474 140.214 52.5933 138.967 55.2401C137.723 57.887 135.47 60.0564 132.504 61.1275C131.094 61.6346 129.647 61.8498 128.234 61.7978C126.772 61.7459 125.34 61.4095 124.019 60.8257C122.006 59.9352 120.823 59.4726 119.883 59.3588C119.02 59.2549 118.26 59.4602 117.061 59.903L116.079 60.2666C114.359 60.9024 112.665 61.5282 110.857 62.1441C109.432 62.629 108.613 62.953 107.965 63.5863C107.27 64.269 106.644 65.3822 105.613 67.4526C104.967 68.7463 104.079 69.9189 102.983 70.8935C101.924 71.8335 100.675 72.5929 99.2676 73.1C96.3017 74.1686 93.1824 73.9336 90.5356 72.6869C87.8887 71.4426 85.7194 69.1891 84.6483 66.2232C83.5796 63.2573 83.8146 60.138 85.0614 57.4912C86.3056 54.8444 88.5591 52.675 91.525 51.6039C92.935 51.0968 94.3821 50.8816 95.7946 50.9335C97.2565 50.9855 98.6888 51.3219 100.01 51.9057C101.952 52.764 103.119 53.2241 104.047 53.3577C104.888 53.4789 105.605 53.3156 106.681 52.9322C107.483 52.6453 108.556 52.2544 109.63 51.8636C110.923 51.3911 112.217 50.9211 113.585 50.4412L113.588 50.4437ZM117.543 50.3843C116.665 51.3021 115.742 51.7275 114.221 52.2594C112.942 52.7071 111.616 53.1895 110.29 53.6743C109.395 54.0008 108.499 54.3274 107.324 54.7454C105.944 55.2377 104.994 55.4405 103.767 55.2649C102.629 55.1016 101.336 54.597 99.2305 53.6669C98.1347 53.1821 96.9424 52.905 95.7204 52.8605C94.5479 52.8184 93.3481 52.9965 92.1731 53.4195C89.7044 54.3076 87.8319 56.1133 86.7979 58.3124C85.7639 60.5115 85.5685 63.1039 86.459 65.5751C87.347 68.0438 89.1528 69.9164 91.3519 70.9504C93.551 71.9844 96.1434 72.1798 98.6145 71.2893C99.7895 70.8663 100.828 70.2355 101.704 69.4588C102.617 68.6474 103.357 67.6752 103.891 66.6017C105.029 64.3234 105.736 63.0742 106.614 62.2134C107.54 61.3056 108.534 60.9048 110.241 60.3235C111.95 59.7397 113.669 59.104 115.411 58.4609L116.393 58.0972C117.884 57.5481 118.861 57.2958 120.116 57.4467C121.291 57.5877 122.607 58.0948 124.796 59.062C125.892 59.5468 127.084 59.8238 128.306 59.8684C129.478 59.9104 130.678 59.7323 131.853 59.3093C134.322 58.4213 136.194 56.6155 137.228 54.4164C138.262 52.2173 138.458 49.6249 137.567 47.1537C136.679 44.685 134.873 42.8125 132.674 41.7785C130.475 40.7445 127.883 40.5491 125.412 41.4396C124.237 41.8626 123.198 42.4934 122.322 43.2701C121.409 44.0815 120.67 45.0536 120.135 46.1272C119.057 48.2892 118.364 49.5186 117.541 50.3819L117.543 50.3843ZM104.596 102.673C105.387 103.712 105.922 104.305 106.708 104.684C107.567 105.097 108.813 105.342 111.005 105.668C112.435 105.883 113.823 106.366 115.087 107.105C116.309 107.82 117.414 108.775 118.335 109.96C120.269 112.451 121.009 115.491 120.643 118.393C120.276 121.294 118.805 124.055 116.316 125.987C113.825 127.921 110.785 128.661 107.883 128.295C104.982 127.929 102.221 126.457 100.289 123.968C99.3715 122.786 98.7209 121.475 98.3326 120.114C97.9293 118.704 97.8057 117.24 97.9541 115.8C98.1792 113.614 98.2509 112.35 98.0679 111.417C97.8997 110.564 97.4692 109.906 96.6777 108.901L96.032 108.083C94.8694 106.611 93.7216 105.156 92.6283 103.697C91.7205 102.485 91.1614 101.802 90.3649 101.386C89.509 100.941 88.2524 100.691 85.9568 100.345C84.527 100.13 83.1393 99.6473 81.8753 98.9077C80.6533 98.1928 79.5476 97.238 78.6274 96.0531C76.693 93.5621 75.9533 90.522 76.3194 87.6204C76.6855 84.7188 78.1574 81.9582 80.6459 80.0262C83.1368 78.0918 86.177 77.3522 89.0786 77.7183C91.9802 78.0844 94.7408 79.5563 96.6727 82.0448C97.5905 83.2272 98.241 84.5382 98.6294 85.8987C99.0326 87.3087 99.1563 88.7731 99.0079 90.2128C98.7927 92.3154 98.716 93.5671 98.8768 94.4972C99.0202 95.3357 99.3987 95.9665 100.096 96.8719C100.853 97.8539 101.437 98.601 102.021 99.348C102.896 100.466 103.77 101.587 104.596 102.67V102.673ZM105.877 106.42C104.737 105.869 104.044 105.122 103.067 103.838C102.194 102.692 101.35 101.614 100.509 100.535C99.8044 99.6325 99.0969 98.7296 98.5725 98.0469C97.6795 96.8867 97.1897 96.0457 96.9795 94.8262C96.784 93.6982 96.8632 92.3105 97.1007 90.0124C97.2219 88.8226 97.1205 87.6031 96.784 86.4306C96.46 85.3026 95.9207 84.2166 95.1539 83.2296C93.5435 81.1567 91.248 79.9322 88.8386 79.628C86.4293 79.3237 83.9012 79.9397 81.8283 81.5476C79.7553 83.1579 78.5309 85.4535 78.2266 87.8628C77.9224 90.2722 78.5383 92.8002 80.1462 94.8732C80.9105 95.8602 81.8307 96.6517 82.8425 97.2454C83.8987 97.8638 85.0539 98.267 86.2388 98.4451C88.7471 98.8211 90.1497 99.1106 91.2505 99.6844C92.4081 100.288 93.0958 101.109 94.1694 102.544C95.3048 104.06 96.413 105.465 97.5385 106.888L98.1841 107.707C99.1687 108.956 99.7104 109.807 99.9528 111.046C100.18 112.204 100.106 113.614 99.8613 116.001C99.7401 117.191 99.8415 118.41 100.178 119.583C100.502 120.711 101.041 121.797 101.808 122.784C103.418 124.856 105.714 126.081 108.123 126.385C110.533 126.689 113.061 126.073 115.134 124.466C117.207 122.855 118.431 120.56 118.735 118.15C119.04 115.741 118.424 113.213 116.816 111.14C116.051 110.153 115.131 109.361 114.119 108.768C113.063 108.149 111.908 107.746 110.723 107.568C108.334 107.209 106.951 106.932 105.88 106.415L105.877 106.42ZM52.1468 110.262C51.4022 111.335 51.004 112.028 50.8877 112.899C50.7591 113.844 50.9124 115.105 51.2761 117.287C51.5135 118.714 51.4839 120.181 51.1697 121.613C50.8679 122.994 50.3014 124.342 49.4579 125.581C47.6843 128.191 45.0227 129.836 42.1532 130.383C39.2838 130.932 36.2016 130.383 33.5919 128.611C30.9821 126.838 29.3372 124.176 28.7905 121.307C28.2413 118.437 28.7905 115.355 30.5616 112.745C31.4027 111.509 32.4465 110.487 33.6215 109.695C34.8411 108.872 36.1966 108.3 37.6066 107.998C39.7562 107.536 40.9807 107.217 41.8118 106.752C41.8316 106.742 41.8489 106.732 41.8687 106.722C42.5935 106.304 43.0808 105.693 43.7759 104.652L44.3572 103.781C45.3838 102.242 46.3955 100.723 47.474 99.1947C48.3448 97.9578 48.8197 97.2133 48.9706 96.3227C49.1314 95.3654 48.983 94.094 48.5996 91.8108C48.3621 90.3835 48.3918 88.9166 48.7059 87.4843C49.0077 86.104 49.5742 84.7559 50.4177 83.5166C52.1913 80.9069 54.853 79.2619 57.7224 78.7152C60.5919 78.166 63.6741 78.7152 66.2838 80.4864C68.8935 82.26 70.536 84.9216 71.0852 87.7911C71.6343 90.6605 71.0852 93.7427 69.314 96.3524C68.473 97.5893 67.4291 98.6109 66.2566 99.4025C65.0346 100.226 63.6815 100.798 62.2715 101.099C60.1936 101.547 58.9791 101.861 58.1529 102.297C57.4058 102.69 56.921 103.244 56.2753 104.189C55.5926 105.188 55.0534 105.987 54.5116 106.789C53.7324 107.946 52.9532 109.102 52.1493 110.262H52.1468ZM48.978 112.634C49.1487 111.382 49.6459 110.497 50.5661 109.168C51.3577 108.026 52.1369 106.868 52.9161 105.713C53.5469 104.778 54.1777 103.84 54.6823 103.106C55.5085 101.896 56.1591 101.171 57.2574 100.592C58.279 100.053 59.6197 99.7018 61.8683 99.2169C63.0458 98.9646 64.1713 98.4897 65.1805 97.8119C66.1527 97.1564 67.0209 96.3054 67.7234 95.2714C69.1953 93.102 69.6504 90.5418 69.1953 88.1522C68.7401 85.7651 67.3722 83.5512 65.2053 82.0794C63.0359 80.6076 60.4756 80.1524 58.0861 80.6076C55.699 81.0627 53.4851 82.4306 52.0132 84.5976C51.3132 85.6291 50.8432 86.7497 50.5909 87.8974C50.3287 89.0922 50.3039 90.3167 50.4993 91.4966C50.9174 94.0049 51.0782 95.4322 50.8729 96.6468C50.6577 97.9281 50.0887 98.836 49.0547 100.303C47.991 101.809 46.9843 103.321 45.9626 104.849L45.3813 105.72C44.518 107.009 43.8848 107.783 42.8186 108.394C42.7964 108.409 42.7741 108.424 42.7518 108.436C41.7203 109.01 40.3573 109.374 38.0123 109.878C36.8348 110.131 35.7093 110.606 34.7001 111.283C33.7279 111.939 32.8596 112.79 32.1571 113.824C30.6853 115.993 30.2301 118.554 30.6853 120.943C31.1405 123.33 32.5084 125.544 34.6753 127.018C36.8447 128.49 39.405 128.945 41.7945 128.49C44.1816 128.035 46.3955 126.667 47.8698 124.5C48.5699 123.469 49.0399 122.348 49.2922 121.2C49.5544 120.006 49.5791 118.781 49.3837 117.601C48.9855 115.217 48.8222 113.812 48.9805 112.637L48.978 112.634ZM25.4881 60.4447C26.7299 60.2196 27.7268 60.4175 29.2728 60.8826C30.6136 61.2858 31.9518 61.6692 33.2876 62.0501C34.2944 62.3396 35.3012 62.6265 36.3104 62.9233C37.7155 63.3364 38.606 63.7298 39.494 64.5955C40.3227 65.402 41.0747 66.567 42.2274 68.5534C42.831 69.5923 43.63 70.5175 44.5922 71.2695C45.5149 71.9893 46.591 72.5508 47.7932 72.8996C50.3113 73.6294 52.8864 73.2707 55.0162 72.1006C57.1461 70.9306 58.8282 68.9467 59.5579 66.4285C60.2876 63.9103 59.9289 61.3353 58.7589 59.2054C57.5889 57.0756 55.605 55.3935 53.0868 54.6638C51.8846 54.315 50.675 54.2136 49.5099 54.3274C48.2953 54.4461 47.1253 54.8023 46.0591 55.3564C43.8081 56.5265 42.5045 57.1177 41.2775 57.3007C39.9937 57.4912 38.9548 57.2314 37.238 56.6996C35.4694 56.1529 33.723 55.6631 31.9568 55.1659C31.6377 55.0769 31.3235 54.9878 30.9475 54.8815C29.4213 54.451 28.4862 54.08 27.5611 53.2216C26.6879 52.4103 25.921 51.2303 24.7213 49.1624C24.1177 48.1234 23.3187 47.1983 22.3565 46.4463C21.4338 45.7264 20.3578 45.1649 19.1556 44.8161C16.6374 44.0864 14.0623 44.4451 11.9325 45.6151C9.80264 46.7852 8.12055 48.769 7.39082 51.2872C6.66109 53.8054 7.01977 56.3805 8.18981 58.5103C9.35986 60.6402 11.3437 62.3222 13.8619 63.052C15.0641 63.4008 16.2737 63.5022 17.4388 63.3884C18.6534 63.2697 19.8234 62.9134 20.8896 62.3593C23.0293 61.2462 24.3131 60.6575 25.4881 60.4447Z" fill="#00ADB5"/>
</svg>
